subject11_noload_free_trial03_ground_reaction
version=1
nRows=22
nColumns=19
inDegrees=no
endheader
time	ground_force_r_vx	ground_force_r_vy	ground_force_r_vz	ground_force_r_px	ground_force_r_py	ground_force_r_pz	ground_torque_r_x	ground_torque_r_y	ground_torque_r_z	ground_force_l_vx	ground_force_l_vy	ground_force_l_vz	ground_force_l_px	ground_force_l_py	ground_force_l_pz	ground_torque_l_x	ground_torque_l_y	ground_torque_l_z
0.000000	0.000000	0.000000	0.000000	346.097838	0.000000	96.391523	0.000000	0.000000	0.000000	0.000000	0.000000	0.000000	155.462760	0.000000	-502.663311	0.000000	0.000000	0.000000
0.000500	0.000000	0.000000	0.000000	344.134506	0.000000	95.841400	0.000000	0.000000	0.000000	0.000000	0.000000	0.000000	155.190532	0.000000	-501.757785	0.000000	0.000000	0.000000
0.001000	0.000000	0.000000	0.000000	342.178635	0.000000	95.293376	0.000000	0.000000	0.000000	0.000000	0.000000	0.000000	154.918624	0.000000	-500.853348	0.000000	0.000000	0.000000
0.001500	0.000000	0.000000	0.000000	340.230212	0.000000	94.747447	0.000000	0.000000	0.000000	0.000000	0.000000	0.000000	154.647035	0.000000	-499.950000	0.000000	0.000000	0.000000
0.002000	0.000000	0.000000	0.000000	338.289222	0.000000	94.203610	0.000000	0.000000	0.000000	0.000000	0.000000	0.000000	154.375765	0.000000	-499.047739	0.000000	0.000000	0.000000
0.002500	0.000000	0.000000	0.000000	336.355651	0.000000	93.661859	0.000000	0.000000	0.000000	0.000000	0.000000	0.000000	154.104815	0.000000	-498.146566	0.000000	0.000000	0.000000
0.003000	0.000000	0.000000	0.000000	334.429485	0.000000	93.122191	0.000000	0.000000	0.000000	0.000000	0.000000	0.000000	153.834183	0.000000	-497.246478	0.000000	0.000000	0.000000
0.003500	0.000000	0.000000	0.000000	332.510710	0.000000	92.584603	0.000000	0.000000	0.000000	0.000000	0.000000	0.000000	153.563870	0.000000	-496.347477	0.000000	0.000000	0.000000
0.004000	0.000000	0.000000	0.000000	330.599312	0.000000	92.049089	0.000000	0.000000	0.000000	0.000000	0.000000	0.000000	153.293875	0.000000	-495.449560	0.000000	0.000000	0.000000
0.004500	0.000000	0.000000	0.000000	328.695275	0.000000	91.515646	0.000000	0.000000	0.000000	0.000000	0.000000	0.000000	153.024199	0.000000	-494.552728	0.000000	0.000000	0.000000
0.005000	0.000000	0.000000	0.000000	326.798587	0.000000	90.984270	0.000000	0.000000	0.000000	0.000000	0.000000	0.000000	152.754841	0.000000	-493.656980	0.000000	0.000000	0.000000
0.005500	0.000000	0.000000	0.000000	324.909232	0.000000	90.454958	0.000000	0.000000	0.000000	0.000000	0.000000	0.000000	152.485800	0.000000	-492.762315	0.000000	0.000000	0.000000
0.006000	0.000000	0.000000	0.000000	323.027197	0.000000	89.927704	0.000000	0.000000	0.000000	0.000000	0.000000	0.000000	152.217077	0.000000	-491.868732	0.000000	0.000000	0.000000
0.006500	0.000000	0.000000	0.000000	321.152467	0.000000	89.402504	0.000000	0.000000	0.000000	0.000000	0.000000	0.000000	151.948672	0.000000	-490.976231	0.000000	0.000000	0.000000
0.007000	0.000000	0.000000	0.000000	319.285027	0.000000	88.879356	0.000000	0.000000	0.000000	0.000000	0.000000	0.000000	151.680585	0.000000	-490.084811	0.000000	0.000000	0.000000
0.007500	0.000000	0.000000	0.000000	317.424865	0.000000	88.358255	0.000000	0.000000	0.000000	0.000000	0.000000	0.000000	151.412814	0.000000	-489.194472	0.000000	0.000000	0.000000
0.008000	0.000000	0.000000	0.000000	315.571965	0.000000	87.839196	0.000000	0.000000	0.000000	0.000000	0.000000	0.000000	151.145360	0.000000	-488.305212	0.000000	0.000000	0.000000
0.008500	0.000000	0.000000	0.000000	313.726313	0.000000	87.322176	0.000000	0.000000	0.000000	0.000000	0.000000	0.000000	150.878223	0.000000	-487.417032	0.000000	0.000000	0.000000
0.009000	0.000000	0.000000	0.000000	311.887895	0.000000	86.807191	0.000000	0.000000	0.000000	0.000000	0.000000	0.000000	150.611403	0.000000	-486.529930	0.000000	0.000000	0.000000
0.009500	0.000000	0.000000	0.000000	310.056697	0.000000	86.294237	0.000000	0.000000	0.000000	0.000000	0.000000	0.000000	150.344899	0.000000	-485.643906	0.000000	0.000000	0.000000
0.010000	0.000000	0.000000	0.000000	308.232705	0.000000	85.783309	0.000000	0.000000	0.000000	0.000000	0.000000	0.000000	150.078711	0.000000	-484.758959	0.000000	0.000000	0.000000
0.010500	0.000000	0.000000	0.000000	306.415903	0.000000	85.274404	0.000000	0.000000	0.000000	0.000000	0.000000	0.000000	149.812839	0.000000	-483.875088	0.000000	0.000000	0.000000
